<svg xmlns="http://www.w3.org/2000/svg" viewBox="0 0 500 500"><title>logo</title><g id="BG"><rect width="500" height="500" style="fill:#eb1c3c"/></g><g id="Elements"><path d="M188.59,200.12h28.74V172.51H188.59V146.87c0-18,9.58-27.32,23.94-27.32V91.94c-34.93,0-53,21.7-53,54.94v25.64H145.49v27.61h14.08V348.29h29Z" style="fill:#fff"/><path d="M325.49,233.36c0,21.69-15.21,36.05-34.65,36.05s-34.65-14.36-34.65-36.05,15.21-36.06,34.65-36.06,34.65,14.37,34.65,36.06m29,0c0-35.78-27.6-63.67-63.67-63.67s-63.67,27.89-63.67,63.67c0,22.41,10.84,41.72,27.79,53L199.75,379c-5.67,9.52-.78,22.07,9.15,27s22.87,1.14,27-9.14l40.37-101.42a66.51,66.51,0,0,0,14.6,1.65c36.06,0,63.67-27.89,63.67-63.67" style="fill:#fff"/></g></svg>
